<?xml version="1.0" encoding="iso-8859-1"?>
<!-- Uploaded to: SVG Repo, www.svgrepo.com, Generator: SVG Repo Mixer Tools -->
<svg fill="#fffdfd" version="1.1" id="Layer_1" xmlns="http://www.w3.org/2000/svg" xmlns:xlink="http://www.w3.org/1999/xlink"
	 viewBox="0 0 512 512" xml:space="preserve">
<g>
	<g>
		<path d="M407.203,149.962C400.85,136.551,387.338,128,372.499,128h-0.801l-32.109,12.844l12.038,60.191l-37.655,7.531
			l-10.643-53.219L275.2,166.599V409.6h121.6v-76.8l38.4,76.8l76.8-38.4L407.203,149.962z M358.4,371.2h-51.2v-38.4h51.2V371.2z"/>
	</g>
</g>
<g>
	<g>
		<path d="M256.777,12.803c-49.251-0.365-90.502,34.051-100.723,80.14L256,132.922l99.713-39.886
			C345.26,47.628,305.185,13.162,256.777,12.803z M256,129.553L196.847,70.4h118.305L256,129.553z"/>
	</g>
</g>
<g>
	<g>
		<rect x="275.2" y="448" width="121.6" height="51.2"/>
	</g>
</g>
<g>
	<g>
		<rect x="115.2" y="448" width="121.6" height="51.2"/>
	</g>
</g>
<g>
	<g>
		<path d="M208.671,155.347l-10.643,53.219l-37.655-7.531l12.038-60.191L140.302,128h-0.801c-14.839,0-28.351,8.55-34.703,21.961
			L0,371.2l76.8,38.4l38.4-76.8v76.8h121.6V166.599L208.671,155.347z M204.8,371.2h-51.2v-38.4h51.2V371.2z"/>
	</g>
</g>
</svg>
