<?xml version="1.0" encoding="iso-8859-1"?>
<!-- Uploaded to: SVG Repo, www.svgrepo.com, Generator: SVG Repo Mixer Tools -->
<!DOCTYPE svg PUBLIC "-//W3C//DTD SVG 1.1//EN" "http://www.w3.org/Graphics/SVG/1.1/DTD/svg11.dtd">
<svg fill="#fffdfd" height="800px" width="800px" version="1.1" id="Capa_1" xmlns="http://www.w3.org/2000/svg" xmlns:xlink="http://www.w3.org/1999/xlink"
	 viewBox="0 0 290.094 290.094" xml:space="preserve">
<path d="M287.804,168.95l-4.583-6.372c1.47-6.462,0.47-12.932-3.375-17.968c-2.29-2.999-5.34-5.156-8.828-6.473
	c1.402-7.683,0.015-15.282-4.56-21.273c-2.597-3.401-5.969-5.942-9.818-7.633c0.926-8.658-1.254-17.525-6.827-24.823
	c-7.749-10.147-20.151-14.76-32.395-13.331l-1.079-1.5c-4.957-6.893-12.929-10.98-21.42-10.98h-12.186V42.043
	c0-6.721-5.449-12.17-12.17-12.17h-2.886L149.54,78.971c1.823,1.368,3.007,3.541,3.007,5.995v15c0,4.143-3.357,7.5-7.5,7.5
	c-4.143,0-7.5-3.357-7.5-7.5v-15c0-2.455,1.184-4.627,3.007-5.995l-18.138-49.099h-3.235c-6.722,0-12.171,5.449-12.171,12.17v16.554
	H95.175c-8.491,0-16.463,4.086-21.42,10.98l-1.104,1.534c-12.349-1.55-24.902,3.06-32.72,13.297
	c-5.573,7.298-7.752,16.164-6.827,24.823c-3.849,1.691-7.22,4.232-9.818,7.633c-4.576,5.991-5.962,13.59-4.561,21.273
	c-3.488,1.318-6.538,3.474-8.828,6.473c-3.919,5.132-4.886,11.754-3.292,18.338L2.29,168.95c-3.708,5.157-2.828,12.298,2.023,16.399
	l13.14,11.109c4.83,4.084,11.982,3.787,16.458-0.683l7.251-7.242c5.674-0.372,10.826-2.531,14.521-6.439
	c-0.415,2.449-0.635,4.939-0.635,7.466c0,12.829,5.511,24.757,14.965,34.7c1.295,1.639,2.67,3.243,4.14,4.799
	c-2.824,2.229-4.643,5.674-4.643,9.551v9.441c0,6.721,5.449,12.17,12.17,12.17h126.735c6.721,0,12.17-5.449,12.17-12.17v-9.441
	c0-3.877-1.819-7.322-4.643-9.551c1.47-1.555,2.844-3.159,4.139-4.798c9.454-9.944,14.965-21.872,14.965-34.701
	c0-2.379-0.196-4.726-0.565-7.037c3.742,3.715,8.862,5.735,14.466,6.026l7.235,7.226c4.475,4.469,11.628,4.766,16.458,0.683
	l13.14-11.109C290.632,181.248,291.513,174.107,287.804,168.95z M152.547,240.218c0,4.143-3.357,7.5-7.5,7.5
	c-4.143,0-7.5-3.357-7.5-7.5v-15c0-4.143,3.357-7.5,7.5-7.5c4.143,0,7.5,3.357,7.5,7.5V240.218z M152.547,200.168
	c0,4.143-3.357,7.5-7.5,7.5c-4.143,0-7.5-3.357-7.5-7.5v-25.051c0-4.143,3.357-7.5,7.5-7.5c4.143,0,7.5,3.357,7.5,7.5V200.168z
	 M152.547,150.067c0,4.142-3.357,7.5-7.5,7.5c-4.143,0-7.5-3.358-7.5-7.5v-25.051c0-4.143,3.357-7.5,7.5-7.5
	c4.143,0,7.5,3.357,7.5,7.5V150.067z"/>
</svg>
