<?xml version="1.0" encoding="iso-8859-1"?>
<!-- Uploaded to: SVG Repo, www.svgrepo.com, Generator: SVG Repo Mixer Tools -->
<!DOCTYPE svg PUBLIC "-//W3C//DTD SVG 1.1//EN" "http://www.w3.org/Graphics/SVG/1.1/DTD/svg11.dtd">
<svg fill="#fffdfd" height="800px" width="800px" version="1.1" id="Capa_1" xmlns="http://www.w3.org/2000/svg" xmlns:xlink="http://www.w3.org/1999/xlink"
	 viewBox="0 0 297.275 297.275" xml:space="preserve">
<g>
	<path d="M188.117,125.214h-78.958c-2.581,0-4.757,1.934-5.051,4.499c-0.56,4.878-0.777,9.793-0.639,14.712l4.221,150.219
		c0.041,1.465,1.241,2.632,2.707,2.632h24.604c1.418,0,2.595-1.094,2.7-2.507l9.283-125.136c0.064-0.863,0.783-1.53,1.648-1.53
		c0.865,0,1.583,0.667,1.647,1.53l9.284,125.136c0.105,1.414,1.283,2.507,2.7,2.507h24.604c1.466,0,2.665-1.167,2.707-2.632
		l4.233-150.217c0.139-4.919-0.079-9.835-0.638-14.714C192.874,127.143,190.704,125.214,188.117,125.214z"/>
	<path d="M255.456,65.452L195.82,4.712C192.861,1.698,188.814,0,184.589,0h-14.727c0,11.722-9.503,21.225-21.225,21.225
		c-11.722,0-21.225-9.502-21.225-21.225h-14.727c-4.224,0-8.271,1.698-11.231,4.712L41.82,65.452
		c-1.451,1.478-1.529,3.819-0.18,5.39l12.564,14.633c1.35,1.572,3.678,1.848,5.358,0.636l41.252-29.777l-4.963,53.073
		c-0.104,1.117,0.267,2.226,1.022,3.056c0.756,0.83,1.826,1.302,2.947,1.302h97.635c1.122,0,2.192-0.473,2.947-1.302
		c0.755-0.829,1.126-1.939,1.022-3.056l-4.963-53.073l41.252,29.777c1.68,1.212,4.008,0.936,5.358-0.636l12.564-14.633
		C256.984,69.271,256.906,66.929,255.456,65.452z"/>
</g>
</svg>
