<?xml version="1.0" encoding="iso-8859-1"?>
<!-- Uploaded to: SVG Repo, www.svgrepo.com, Generator: SVG Repo Mixer Tools -->
<svg fill="#fffdfd" height="800px" width="800px" version="1.1" id="Layer_1" xmlns="http://www.w3.org/2000/svg" xmlns:xlink="http://www.w3.org/1999/xlink"
	 viewBox="0 0 512 512" xml:space="preserve">
<g>
	<g>
		<path d="M509.865,330.178L374.805,96.246c-2.785-5.205-8.267-8.424-14.048-8.424h-30.527V54.259
			c0-8.786-7.188-15.927-15.938-15.927H197.708c-8.74,0-15.927,7.115-15.927,15.927v33.563h-30.527
			c-5.532,0-10.911,2.971-13.793,7.965L2.135,330.178c-4.396,7.614-1.786,17.359,5.83,21.757l69.42,40.072
			c7.62,4.399,17.359,1.784,21.755-5.83l36.186-62.677v84.641c0,8.082,6.026,14.743,13.827,15.773v33.828
			c0,8.796,7.131,15.927,15.927,15.927h181.838c8.796,0,15.927-7.131,15.927-15.927v-33.826c7.806-1.026,13.838-7.688,13.838-15.774
			V323.52l36.174,62.658c4.398,7.617,14.137,10.227,21.755,5.83l69.42-40.072C511.649,347.539,514.262,337.794,509.865,330.178z
			 M135.327,259.792l-55.809,96.666l-41.833-24.147l97.642-169.121V259.792z M284.737,70.185l-28.736,43.612l-28.73-43.612H284.737z
			 M271.927,151.256v240.959h-31.854V151.256l7.07,4.73c5.453,3.636,12.466,3.512,17.713,0L271.927,151.256z M214.112,191.897
			c5.864,0,10.618,4.754,10.618,10.618c0,5.864-4.754,10.618-10.618,10.618c-5.864,0-10.618-4.754-10.618-10.618
			C203.494,196.651,208.248,191.897,214.112,191.897z M214.112,264.83c5.864,0,10.618,4.754,10.618,10.618
			c0,5.864-4.754,10.618-10.618,10.618c-5.864,0-10.618-4.754-10.618-10.618C203.494,269.583,208.248,264.83,214.112,264.83z
			 M214.112,337.762c5.864,0,10.618,4.754,10.618,10.618s-4.754,10.618-10.618,10.618c-5.864,0-10.618-4.754-10.618-10.618
			S208.248,337.762,214.112,337.762z M330.992,441.814H181.008v-17.746c1.607,0,147.548,0,149.984,0V441.814z M432.482,356.458
			l-55.798-96.647v-96.602l97.631,169.102L432.482,356.458z"/>
	</g>
</g>
</svg>
